<svg width="32" height="32" viewBox="0 0 32 32" fill="none" xmlns="http://www.w3.org/2000/svg">
  <rect width="32" height="32" rx="8" fill="url(#gradient)"/>
  <path d="M16 7C14.8954 7 14 7.89543 14 9V10.268C13.4392 10.4978 12.9206 10.8047 12.4582 11.1757L11.3395 10.5301C10.3906 9.98237 9.17632 10.3174 8.62858 11.2663L7.88202 12.5586C7.33428 13.5075 7.66935 14.7218 8.61824 15.2695L9.73532 15.9142C9.68619 16.2362 9.66053 16.5652 9.66053 16.9C9.66053 17.2348 9.68619 17.5638 9.73532 17.8858L8.61824 18.5305C7.66935 19.0782 7.33428 20.2925 7.88202 21.2414L8.62858 22.5337C9.17632 23.4826 10.3906 23.8176 11.3395 23.2699L12.4582 22.6243C12.9206 22.9953 13.4392 23.3022 14 23.532V24.8C14 25.9046 14.8954 26.8 16 26.8H17.4C18.5046 26.8 19.4 25.9046 19.4 24.8V23.532C19.9608 23.3022 20.4794 22.9953 20.9418 22.6243L22.0605 23.2699C23.0094 23.8176 24.2237 23.4826 24.7714 22.5337L25.518 21.2414C26.0657 20.2925 25.7306 19.0782 24.7818 18.5305L23.6647 17.8858C23.7138 17.5638 23.7395 17.2348 23.7395 16.9C23.7395 16.5652 23.7138 16.2362 23.6647 15.9142L24.7818 15.2695C25.7306 14.7218 26.0657 13.5075 25.518 12.5586L24.7714 11.2663C24.2237 10.3174 23.0094 9.98237 22.0605 10.5301L20.9418 11.1757C20.4794 10.8047 19.9608 10.4978 19.4 10.268V9C19.4 7.89543 18.5046 7 17.4 7H16Z" fill="white"/>
  <circle cx="16.7" cy="16.9" r="3.2" fill="url(#gradient)"/>
  <defs>
    <linearGradient id="gradient" x1="0" y1="0" x2="32" y2="32" gradientUnits="userSpaceOnUse">
      <stop stop-color="#10B981"/>
      <stop offset="1" stop-color="#14B8A6"/>
    </linearGradient>
  </defs>
</svg>
